<svg xmlns="http://www.w3.org/2000/svg" width="39" height="39" viewBox="0 0 39 39">
  <path d="M10 29C10 28.4477 10.4477 28 11 28H28C28.5523 28 29 28.4477 29 29V33C29 33.5523 28.5523 34 28 34H11C10.4477 34 10 33.5523 10 33V29Z"/>
  <path d="M23.5 24C24.3284 24 25 23.3284 25 22.5C25 21.6716 24.3284 21 23.5 21C22.6716 21 22 21.6716 22 22.5C22 23.3284 22.6716 24 23.5 24Z"/>
  <path d="M15 7H24C24.5523 7 25 7.44772 25 8V13H29C29.5523 13 30 13.4477 30 14V32C30 32.5523 29.5523 33 29 33H28V29C28 27.8954 27.1046 27 26 27H13C11.8954 27 11 27.8954 11 29V33H10C9.44772 33 9 32.5523 9 32V14C9 13.4477 9.44772 13 10 13H14V8C14 7.44772 14.4477 7 15 7Z"/>
</svg>
